<svg width="105" height="105" viewBox="0 0 105 105" fill="none" xmlns="http://www.w3.org/2000/svg">
<path fill-rule="evenodd" clip-rule="evenodd" d="M52.125 104.25C58.9701 104.25 65.7483 102.902 72.0724 100.282C78.3965 97.6627 84.1427 93.8232 88.9829 88.9829C93.8232 84.1427 97.6627 78.3965 100.282 72.0724C102.902 65.7483 104.25 58.9701 104.25 52.125C104.25 45.2798 102.902 38.5017 100.282 32.1776C97.6627 25.8535 93.8232 20.1073 88.9829 15.2671C84.1427 10.4268 78.3965 6.58731 72.0724 3.96778C65.7483 1.34825 58.9701 -1.02001e-07 52.125 0C38.3006 2.06e-07 25.0424 5.49172 15.2671 15.2671C5.49173 25.0424 0 38.3006 0 52.125C0 65.9494 5.49173 79.2076 15.2671 88.9829C25.0424 98.7583 38.3006 104.25 52.125 104.25ZM50.7813 73.2067L79.7397 38.4567L70.8437 31.0433L45.9395 60.9225L33.053 48.0303L24.8636 56.2197L42.2386 73.5947L46.7214 78.0775L50.7813 73.2067Z" fill="#60BE75"/>
</svg>
