<svg width="35" height="35" viewBox="0 0 35 35" fill="none" xmlns="http://www.w3.org/2000/svg">
<rect width="35" height="35" rx="5" fill="#C94747"/>
<path d="M9.5 12.5H25.5M15.5 16.5V22.5M19.5 16.5V22.5M10.5 12.5L11.5 24.5C11.5 25.0304 11.7107 25.5391 12.0858 25.9142C12.4609 26.2893 12.9696 26.5 13.5 26.5H21.5C22.0304 26.5 22.5391 26.2893 22.9142 25.9142C23.2893 25.5391 23.5 25.0304 23.5 24.5L24.5 12.5M14.5 12.5V9.5C14.5 9.23478 14.6054 8.98043 14.7929 8.79289C14.9804 8.60536 15.2348 8.5 15.5 8.5H19.5C19.7652 8.5 20.0196 8.60536 20.2071 8.79289C20.3946 8.98043 20.5 9.23478 20.5 9.5V12.5" stroke="white" stroke-width="2" stroke-linecap="round" stroke-linejoin="round"/>
</svg>
